<!-- flickpick-ticket-favicon.svg -->
<svg xmlns="http://www.w3.org/2000/svg" viewBox="0 0 64 64" width="64" height="64">
  <rect x="8" y="20" width="48" height="24" rx="4" fill="#f43f5e"/>
  <path d="M8 24a4 4 0 0 1 0-8h48a4 4 0 0 1 0 8v16a4 4 0 0 1 0 8H8a4 4 0 0 1 0-8V24z" fill="#f43f5e"/>
  <path d="M24 24h10a2 2 0 0 1 0 4h-6v4h5a2 2 0 0 1 0 4h-5v4h-4V24z" fill="#fff"/>
  <circle cx="52" cy="24" r="2" fill="#fff"/>
  <circle cx="52" cy="32" r="2" fill="#fff"/>
  <circle cx="52" cy="40" r="2" fill="#fff"/>
</svg>
